<svg width="512" height="512" viewBox="0 0 512 512" fill="none" xmlns="http://www.w3.org/2000/svg">
<rect x="256" width="362.039" height="362.039" rx="32" transform="rotate(45 256 0)" fill="#0054C4"/>
<rect x="436.992" y="74.9534" width="362.039" height="362.039" rx="32" transform="rotate(90 436.992 74.9534)" fill="#0054C4"/>
<rect x="147.453" y="487.658" width="362.039" height="362.039" rx="32" transform="rotate(-110 147.453 487.658)" fill="#0054C4"/>
<rect x="487.658" y="147.453" width="362.039" height="362.039" rx="32" transform="rotate(110 487.658 147.453)" fill="#0054C4"/>
<circle cx="255.973" cy="255.973" r="181.019" fill="#1A73E8"/>
<path d="M160 312V352H200L317.973 234.027L277.973 194.027L160 312ZM191.147 330.667H181.333V320.853L277.973 224.213L287.787 234.027L191.147 330.667ZM348.907 188.053L323.947 163.093C321.813 160.96 319.147 160 316.373 160C313.6 160 310.933 161.067 308.907 163.093L289.387 182.613L329.387 222.613L348.907 203.093C353.067 198.933 353.067 192.213 348.907 188.053Z" fill="white"/>
</svg>
