<svg width="512" height="512" viewBox="0 0 512 512" fill="none" xmlns="http://www.w3.org/2000/svg">
<rect x="74.9532" y="74.9531" width="362.039" height="362.039" rx="32" fill="#CAAA00"/>
<rect x="256" width="362.039" height="362.039" rx="32" transform="rotate(45 256 0)" fill="#CAAA00"/>
<circle cx="255.973" cy="255.972" r="181.019" fill="#FFD700"/>
<path d="M352 181.333C340.16 177.6 327.147 176 314.667 176C293.867 176 271.467 180.267 256 192C240.533 180.267 218.133 176 197.333 176C176.533 176 154.133 180.267 138.667 192V348.267C138.667 350.933 141.333 353.6 144 353.6C145.067 353.6 145.6 353.067 146.667 353.067C161.067 346.133 181.867 341.333 197.333 341.333C218.133 341.333 240.533 345.6 256 357.333C270.4 348.267 296.533 341.333 314.667 341.333C332.267 341.333 350.4 344.533 365.333 352.533C366.4 353.067 366.933 353.067 368 353.067C370.667 353.067 373.333 350.4 373.333 347.733V192C366.933 187.2 360 184 352 181.333ZM352 325.333C340.267 321.6 327.467 320 314.667 320C296.533 320 270.4 326.933 256 336V213.333C270.4 204.267 296.533 197.333 314.667 197.333C327.467 197.333 340.267 198.933 352 202.667V325.333Z" fill="white"/>
<path d="M314.667 240C324.053 240 333.12 240.96 341.333 242.773V226.56C332.907 224.96 323.84 224 314.667 224C296.533 224 280.107 227.093 266.667 232.853V250.56C278.72 243.733 295.467 240 314.667 240Z" fill="white"/>
<path d="M266.667 261.228V278.935C278.72 272.108 295.467 268.375 314.667 268.375C324.053 268.375 333.12 269.335 341.333 271.148V254.935C332.907 253.335 323.84 252.375 314.667 252.375C296.533 252.375 280.107 255.575 266.667 261.228Z" fill="white"/>
<path d="M314.667 280.854C296.533 280.854 280.107 283.947 266.667 289.707V307.414C278.72 300.587 295.467 296.854 314.667 296.854C324.053 296.854 333.12 297.814 341.333 299.627V283.414C332.907 281.707 323.84 280.854 314.667 280.854Z" fill="white"/>
</svg>
