<svg width="512" height="512" viewBox="0 0 512 512" fill="none" xmlns="http://www.w3.org/2000/svg">
<rect x="74.9532" y="74.9531" width="362.039" height="362.039" rx="32" fill="#3E94C0"/>
<rect x="256" width="362.039" height="362.039" rx="32" transform="rotate(45 256 0)" fill="#3E94C0"/>
<circle cx="255.973" cy="255.972" r="181.019" fill="#50BEF7"/>
<path d="M330.667 181.333V330.667H181.333V181.333H330.667ZM330.667 160H181.333C169.6 160 160 169.6 160 181.333V330.667C160 342.4 169.6 352 181.333 352H330.667C342.4 352 352 342.4 352 330.667V181.333C352 169.6 342.4 160 330.667 160Z" fill="white"/>
<path d="M277.333 309.333H202.667V288H277.333V309.333ZM309.333 266.667H202.667V245.333H309.333V266.667ZM309.333 224H202.667V202.667H309.333V224Z" fill="white"/>
</svg>
