<svg width="512" height="512" viewBox="0 0 512 512" fill="none" xmlns="http://www.w3.org/2000/svg">
<rect x="256" width="362.039" height="362.039" rx="32" transform="rotate(45 256 0)" fill="#277D27"/>
<rect x="436.992" y="74.9534" width="362.039" height="362.039" rx="32" transform="rotate(90 436.992 74.9534)" fill="#277D27"/>
<rect x="147.453" y="487.658" width="362.039" height="362.039" rx="32" transform="rotate(-110 147.453 487.658)" fill="#277D27"/>
<rect x="487.658" y="147.453" width="362.039" height="362.039" rx="32" transform="rotate(110 487.658 147.453)" fill="#277D27"/>
<circle cx="255.973" cy="255.973" r="181.019" fill="#329932"/>
<path d="M256 192C267.733 192 277.333 201.6 277.333 213.333C277.333 225.067 267.733 234.667 256 234.667C244.267 234.667 234.667 225.067 234.667 213.333C234.667 201.6 244.267 192 256 192ZM256 298.667C284.8 298.667 317.867 312.427 320 320H192C194.453 312.32 227.307 298.667 256 298.667ZM256 170.667C232.427 170.667 213.333 189.76 213.333 213.333C213.333 236.907 232.427 256 256 256C279.573 256 298.667 236.907 298.667 213.333C298.667 189.76 279.573 170.667 256 170.667ZM256 277.333C227.52 277.333 170.667 291.627 170.667 320V341.333H341.333V320C341.333 291.627 284.48 277.333 256 277.333Z" fill="white"/>
</svg>
