<svg width="512" height="512" viewBox="0 0 512 512" fill="none" xmlns="http://www.w3.org/2000/svg">
<rect x="256" width="362.039" height="362.039" rx="32" transform="rotate(45 256 0)" fill="#FF1616"/>
<rect x="436.992" y="74.9534" width="362.039" height="362.039" rx="32" transform="rotate(90 436.992 74.9534)" fill="#FF1616"/>
<rect x="147.453" y="487.658" width="362.039" height="362.039" rx="32" transform="rotate(-110 147.453 487.658)" fill="#FF1616"/>
<rect x="487.658" y="147.453" width="362.039" height="362.039" rx="32" transform="rotate(110 487.658 147.453)" fill="#FF1616"/>
<circle cx="255.973" cy="255.973" r="181.019" fill="#FF3232"/>
<path d="M341.333 170.667H307.52L288 149.333H224L204.48 170.667H170.667C158.933 170.667 149.333 180.267 149.333 192V320C149.333 331.733 158.933 341.333 170.667 341.333H341.333C353.067 341.333 362.667 331.733 362.667 320V192C362.667 180.267 353.067 170.667 341.333 170.667ZM341.333 320H170.667V192H213.867L233.387 170.667H278.613L298.133 192H341.333V320ZM256 202.667C226.56 202.667 202.667 226.56 202.667 256C202.667 285.44 226.56 309.333 256 309.333C285.44 309.333 309.333 285.44 309.333 256C309.333 226.56 285.44 202.667 256 202.667ZM256 288C238.4 288 224 273.6 224 256C224 238.4 238.4 224 256 224C273.6 224 288 238.4 288 256C288 273.6 273.6 288 256 288Z" fill="white"/>
</svg>
