<svg width="512" height="512" viewBox="0 0 512 512" fill="none" xmlns="http://www.w3.org/2000/svg">
<rect x="256" width="362.039" height="362.039" rx="32" transform="rotate(45 256 0)" fill="#E07B00"/>
<rect x="436.992" y="74.9534" width="362.039" height="362.039" rx="32" transform="rotate(90 436.992 74.9534)" fill="#E07B00"/>
<rect x="147.453" y="487.658" width="362.039" height="362.039" rx="32" transform="rotate(-110 147.453 487.658)" fill="#E07B00"/>
<rect x="487.658" y="147.453" width="362.039" height="362.039" rx="32" transform="rotate(110 487.658 147.453)" fill="#E07B00"/>
<circle cx="255.973" cy="255.973" r="181.019" fill="#FF8C00"/>
<path d="M224 274.667C199.04 274.667 149.333 287.147 149.333 312V330.667H298.667V312C298.667 287.147 248.96 274.667 224 274.667ZM174.293 309.333C183.253 303.147 204.907 296 224 296C243.093 296 264.747 303.147 273.707 309.333H174.293ZM224 256C244.587 256 261.333 239.253 261.333 218.667C261.333 198.08 244.587 181.333 224 181.333C203.413 181.333 186.667 198.08 186.667 218.667C186.667 239.253 203.413 256 224 256ZM224 202.667C232.853 202.667 240 209.813 240 218.667C240 227.52 232.853 234.667 224 234.667C215.147 234.667 208 227.52 208 218.667C208 209.813 215.147 202.667 224 202.667ZM299.093 275.307C311.467 284.267 320 296.213 320 312V330.667H362.667V312C362.667 290.453 325.333 278.187 299.093 275.307ZM288 256C308.587 256 325.333 239.253 325.333 218.667C325.333 198.08 308.587 181.333 288 181.333C282.24 181.333 276.907 182.72 272 185.067C278.72 194.56 282.667 206.187 282.667 218.667C282.667 231.147 278.72 242.773 272 252.267C276.907 254.613 282.24 256 288 256Z" fill="white"/>
</svg>
