<svg width="512" height="512" viewBox="0 0 512 512" fill="none" xmlns="http://www.w3.org/2000/svg">
<rect x="74.9532" y="74.9531" width="362.039" height="362.039" rx="32" fill="#3E94C0"/>
<rect x="256" width="362.039" height="362.039" rx="32" transform="rotate(45 256 0)" fill="#3E94C0"/>
<circle cx="255.973" cy="255.972" r="181.019" fill="#50BEF7"/>
<path d="M347.413 286.507L362.667 271.254L347.413 256L309.333 294.08L217.92 202.667L256 164.587L240.747 149.333L225.493 164.587L210.24 149.333L187.413 172.16L172.16 156.907L156.907 172.16L172.16 187.413L149.333 210.24L164.587 225.493L149.333 240.747L164.587 256L202.667 217.92L294.08 309.333L256 347.413L271.253 362.667L286.507 347.413L301.76 362.667L324.587 339.84L339.84 355.094L355.093 339.84L339.84 324.587L362.667 301.76L347.413 286.507Z" fill="white"/>
</svg>
